<svg xmlns="http://www.w3.org/2000/svg" width="800.1562499999998" height="438.32808274489173" viewBox="0 0 800.1562499999998 438.32808274489173">

  <defs>
    <style>
      text { font-family: system-ui, -apple-system, "Segoe UI", sans-serif; font-size: 12px; fill: #111827; }
      .shape-rect { fill: #ffffff; stroke: #9ca3af; stroke-width: 1; }
      .shape-entity { fill: #ffffff; stroke: #111827; stroke-width: 2; }
      .shape-circle { fill: #ffffff; stroke: #9ca3af; stroke-width: 1; }
      .shape-pill { fill: #ffffff; stroke: #9ca3af; stroke-width: 1; }
      .shape-db { fill: #ffffff; stroke: #9ca3af; stroke-width: 1; }
      .conn { stroke: #111827; stroke-width: 2; fill: none; }
    </style>
    <marker id="arrow-end" markerWidth="10" markerHeight="7" refX="10" refY="3.5"
            orient="auto" markerUnits="strokeWidth">
      <polygon points="0 0, 10 3.5, 0 7" fill="#111827"/>
    </marker>
    <marker id="arrow-start" markerWidth="10" markerHeight="7" refX="0" refY="3.5"
            orient="auto" markerUnits="strokeWidth">
      <polygon points="10 0, 0 3.5, 10 7" fill="#111827"/>
    </marker>
  </defs>
        
<text x="76.49996243990387" y="54">Front</text>
<text x="507.4999999999999" y="59">Admin</text>
<rect class="shape-rect" x="40" y="79.82811560997595" width="119.99999999999997" height="39.99999999999999" rx="4" ry="4" />
<text x="99.99999999999999" y="103.82811560997595" text-anchor="middle">CSS</text>
<rect class="shape-rect" x="40.390625" y="119.8124812199519" width="119.99999999999997" height="39.99999999999999" rx="4" ry="4" />
<text x="100.39062499999999" y="143.8124812199519" text-anchor="middle">HTML</text>
<rect class="shape-rect" x="41.23436560997595" y="160.21874060997592" width="119.99999999999997" height="39.99999999999999" rx="4" ry="4" />
<text x="101.23436560997594" y="184.21874060997592" text-anchor="middle">JS</text>
<rect class="shape-rect" x="40.390625" y="244.51561560997592" width="119.99999999999997" height="40.00002347506009" rx="4" ry="4" />
<text x="100.39062499999999" y="268.515627347506" text-anchor="middle">PHP / PYTHON</text>
<rect class="shape-rect" x="460.3749436598557" y="81.26561091496393" width="119.99999999999997" height="39.99999999999999" rx="4" ry="4" />
<text x="520.3749436598557" y="105.26561091496393" text-anchor="middle">CSS</text>
<rect class="shape-rect" x="461.60926231971143" y="121.26561091496393" width="119.99999999999997" height="39.99999999999999" rx="4" ry="4" />
<text x="521.6092623197114" y="145.26561091496393" text-anchor="middle">HTML</text>
<rect class="shape-rect" x="461.1874624399038" y="159.98436560997592" width="119.99999999999997" height="39.99999999999999" rx="4" ry="4" />
<text x="521.1874624399038" y="183.98436560997592" text-anchor="middle">JS</text>
<rect class="shape-rect" x="462.8749436598557" y="244.18748121995188" width="119.99999999999997" height="39.999976524939896" rx="4" ry="4" />
<text x="522.8749436598557" y="268.1874694824218" text-anchor="middle">PHP / PYTHON</text>
<rect class="shape-rect" x="266.9374436598557" y="358.32808274489173" width="119.99999999999997" height="39.99999999999999" rx="4" ry="4" />
<text x="326.9374436598557" y="382.32808274489173" text-anchor="middle">XSQL</text>
<text x="165.9062312199519" y="134.31247652493988">READ(insert)</text>
<text x="589.3905874399037" y="131.29687030498795">CRUD</text>
<text x="609.3905874399037" y="146.0781062199519">CreateReadUpdateDelete</text>
<text x="269.64059682992786" y="59.3125">Examen de LDM</text>
<text x="268.98432804987976" y="232.74999999999997">Examen de PROG</text>
<text x="279.64059682992786" y="321.9687265249398">Examen de BD</text>
<text x="43.015606219951934" y="213.20311560997592">-----------------------------------------------------------------------------------------------------------------------------------------------</text>
<text x="42.265625" y="309.3437453049879">-----------------------------------------------------------------------------------------------------------------------------------------------</text>
<path class="conn" d="M 287.1268943014664 358.32808274489173 H 140.2011977222653 V 284.515639085036" marker-end="url(#arrow-end)" />
<path class="conn" d="M 287.1268943014664 358.32808274489173 L 140.2011977222653 284.515639085036" marker-end="url(#arrow-end)" />
<path class="conn" d="M 100.59080821857475 244.51561560997592 L 101.03418250888399 200.21874060997592" marker-end="url(#arrow-end)" />
<path class="conn" d="M 522.4741317771571 244.18748121995188 L 521.5882745578294 199.98436560997592" marker-start="url(#arrow-start)" marker-end="url(#arrow-end)" />
<path class="conn" d="M 361.2700960610541 358.32808274489173 L 488.5423114076842 284.18745774489184" marker-start="url(#arrow-start)" marker-end="url(#arrow-end)" />
</svg>